<?xml version="1.0" encoding="UTF-8"?>
<!DOCTYPE svg PUBLIC "-//W3C//DTD SVG 1.1//EN" "http://www.w3.org/Graphics/SVG/1.1/DTD/svg11.dtd">
<svg xmlns="http://www.w3.org/2000/svg" version="1.1" width="1024px" height="625px" style="shape-rendering:geometricPrecision; text-rendering:geometricPrecision; image-rendering:optimizeQuality; fill-rule:evenodd; clip-rule:evenodd" xmlns:xlink="http://www.w3.org/1999/xlink">
<g><path style="opacity:0.892" fill="#67574b" d="M 508.5,77.5 C 514.371,81.5345 518.037,87.2011 519.5,94.5C 517.832,99.8443 516.166,105.178 514.5,110.5C 514.709,111.086 515.043,111.586 515.5,112C 520.3,110.267 524.966,107.934 529.5,105C 543.909,104.612 549.076,111.446 545,125.5C 540.062,133.014 534.396,140.014 528,146.5C 525.994,149.536 525.16,152.869 525.5,156.5C 521.609,156.108 519.609,153.941 519.5,150C 521.163,143.995 523.329,138.162 526,132.5C 526.35,123.186 522.683,121.186 515,126.5C 513.25,129.246 512.25,132.246 512,135.5C 511.5,148.162 511.333,160.829 511.5,173.5C 524.837,173.667 538.171,173.5 551.5,173C 557.127,172.538 560.793,169.705 562.5,164.5C 560.239,159.892 556.572,158.392 551.5,160C 546.609,162.864 541.442,165.03 536,166.5C 532.339,165.949 530.172,163.949 529.5,160.5C 532.568,159.978 535.568,159.145 538.5,158C 545.391,150.432 553.391,144.432 562.5,140C 572.147,137.818 578.48,141.318 581.5,150.5C 579.489,157.758 576.655,164.424 573,170.5C 573.333,170.833 573.667,171.167 574,171.5C 579.574,169.308 585.241,167.308 591,165.5C 597.536,168.004 603.036,171.837 607.5,177C 603.359,182.242 598.026,185.742 591.5,187.5C 585.405,185.92 579.405,184.42 573.5,183C 573.167,183.333 572.833,183.667 572.5,184C 577.213,188.924 580.213,194.758 581.5,201.5C 578.629,213.318 571.296,217.151 559.5,213C 552.54,207.708 545.873,202.042 539.5,196C 535.729,194.48 532.062,192.814 528.5,191C 530.198,188.142 532.698,186.975 536,187.5C 541.609,188.882 547.109,190.715 552.5,193C 563.422,193.424 565.088,189.758 557.5,182C 542.238,180.548 526.905,180.048 511.5,180.5C 511.333,192.838 511.5,205.171 512,217.5C 512.601,220.637 513.601,223.637 515,226.5C 518.746,230.393 522.412,230.393 526,226.5C 526.667,224.833 526.667,223.167 526,221.5C 523.552,215.603 521.385,209.603 519.5,203.5C 519.887,199.78 521.887,197.78 525.5,197.5C 525.421,200.271 525.921,202.937 527,205.5C 534.869,212.697 541.202,221.031 546,230.5C 547.339,244.497 541.172,249.997 527.5,247C 523.423,245.213 519.59,243.046 516,240.5C 515.308,241.025 514.808,241.692 514.5,242.5C 516.266,247.965 517.932,253.465 519.5,259C 517.317,265.2 513.984,270.7 509.5,275.5C 497.329,266.646 495.329,255.813 503.5,243C 501.196,240.415 498.863,240.748 496.5,244C 492.268,245.799 487.935,247.299 483.5,248.5C 472.599,245.365 469.099,238.365 473,227.5C 478.511,219.839 484.511,212.505 491,205.5C 491.567,202.832 492.067,200.166 492.5,197.5C 496.106,197.523 498.106,199.356 498.5,203C 497.311,208.88 495.144,214.38 492,219.5C 490.457,229.8 493.957,232.134 502.5,226.5C 503.806,225.088 504.64,223.421 505,221.5C 505.5,207.837 505.667,194.171 505.5,180.5C 491.496,180.333 477.496,180.5 463.5,181C 455.833,182.96 454.167,186.96 458.5,193C 460.5,193.667 462.5,193.667 464.5,193C 470.021,191.16 475.521,189.326 481,187.5C 484.3,187.399 486.8,188.733 488.5,191.5C 485.094,192.817 481.761,194.317 478.5,196C 472.46,201.709 466.126,207.043 459.5,212C 450.955,216.379 443.788,214.879 438,207.5C 437.333,203.5 437.333,199.5 438,195.5C 440.127,191.411 442.627,187.577 445.5,184C 444.584,183.626 443.75,183.126 443,182.5C 437.755,184.359 432.422,186.026 427,187.5C 420.47,185.152 414.636,181.652 409.5,177C 417.502,165.772 427.502,163.438 439.5,170C 441.728,170.82 443.728,170.487 445.5,169C 442.612,165.778 440.112,162.278 438,158.5C 434.726,147.014 438.893,140.68 450.5,139.5C 454.739,139.783 458.739,140.95 462.5,143C 468.5,148.333 474.5,153.667 480.5,159C 491.69,160.128 492.19,162.628 482,166.5C 476.558,165.03 471.391,162.864 466.5,160C 463.833,159.333 461.167,159.333 458.5,160C 454.537,163.883 454.87,167.549 459.5,171C 461.392,171.973 463.392,172.64 465.5,173C 478.829,173.5 492.163,173.667 505.5,173.5C 505.667,159.496 505.5,145.496 505,131.5C 503.673,127.135 500.84,124.469 496.5,123.5C 494.399,123.632 492.899,124.632 492,126.5C 491.333,128.833 491.333,131.167 492,133.5C 494.59,138.844 496.756,144.344 498.5,150C 497.815,152.86 496.148,155.027 493.5,156.5C 492.308,152.681 490.808,149.015 489,145.5C 482.839,138.493 477.172,131.159 472,123.5C 469.899,110.276 475.399,104.109 488.5,105C 493.16,106.995 497.494,109.495 501.5,112.5C 502.308,112.192 502.975,111.692 503.5,111C 501.54,105.617 499.873,100.117 498.5,94.5C 499.389,91.7213 500.556,89.0546 502,86.5C 504.41,83.6032 506.577,80.6032 508.5,77.5 Z"/></g>
<g><path style="opacity:0.904" fill="#67574b" d="M 70.5,324.5 C 85.5397,324.124 100.54,324.624 115.5,326C 128.347,331.036 135.347,340.536 136.5,354.5C 135.994,369.69 128.327,378.856 113.5,382C 103.545,383.295 93.545,383.795 83.5,383.5C 83.6666,397.837 83.4999,412.171 83,426.5C 78.5513,425.597 74.218,425.264 70,425.5C 69.1744,391.762 69.341,358.095 70.5,324.5 Z M 83.5,336.5 C 93.5657,336.105 103.566,336.605 113.5,338C 115.624,339.122 117.457,340.622 119,342.5C 123.351,350.578 123.018,358.578 118,366.5C 115.489,368.563 112.656,370.063 109.5,371C 100.84,371.5 92.1731,371.666 83.5,371.5C 83.5,359.833 83.5,348.167 83.5,336.5 Z"/></g>
<g><path style="opacity:0.899" fill="#67574b" d="M 161.5,324.5 C 166.214,324.173 170.88,324.507 175.5,325.5C 188.373,358.791 201.04,392.124 213.5,425.5C 208.489,425.666 203.489,425.499 198.5,425C 194.994,417.31 191.994,409.476 189.5,401.5C 174.83,401.333 160.163,401.5 145.5,402C 142.341,410.139 139.175,418.305 136,426.5C 131.667,425.167 127.333,425.167 123,426.5C 122.333,425.167 122.333,423.833 123,422.5C 135.936,389.855 148.77,357.189 161.5,324.5 Z M 166.5,345.5 C 167.497,345.47 168.164,345.97 168.5,347C 173.684,361.081 179.017,375.081 184.5,389C 173.167,389.667 161.833,389.667 150.5,389C 156.521,374.748 161.854,360.248 166.5,345.5 Z"/></g>
<g><path style="opacity:0.879" fill="#67574b" d="M 194.5,324.5 C 219.5,324.5 244.5,324.5 269.5,324.5C 269.5,328.833 269.5,333.167 269.5,337.5C 259.167,337.5 248.833,337.5 238.5,337.5C 238.833,366.841 238.5,396.174 237.5,425.5C 233.371,425.908 229.038,425.908 224.5,425.5C 224.5,396.167 224.5,366.833 224.5,337.5C 214.5,337.5 204.5,337.5 194.5,337.5C 194.5,333.167 194.5,328.833 194.5,324.5 Z"/></g>
<g><path style="opacity:0.886" fill="#67574b" d="M 275.5,324.5 C 294.5,324.5 313.5,324.5 332.5,324.5C 331.58,328.935 329.914,333.102 327.5,337C 314.838,337.5 302.171,337.667 289.5,337.5C 289.5,347.167 289.5,356.833 289.5,366.5C 301.167,366.5 312.833,366.5 324.5,366.5C 324.5,370.833 324.5,375.167 324.5,379.5C 312.833,379.5 301.167,379.5 289.5,379.5C 289.5,390.833 289.5,402.167 289.5,413.5C 301.838,413.333 314.171,413.5 326.5,414C 329.184,417.536 331.184,421.369 332.5,425.5C 313.458,425.526 294.625,425.526 276,425.5C 275.5,391.835 275.333,358.168 275.5,324.5 Z"/></g>
<g><path style="opacity:0.883" fill="#67574b" d="M 343.5,324.5 C 347.833,324.5 352.167,324.5 356.5,324.5C 356.333,339.504 356.5,354.504 357,369.5C 370.805,354.693 384.639,339.859 398.5,325C 403.864,324.171 409.198,324.337 414.5,325.5C 404.02,337.815 393.353,349.981 382.5,362C 394.184,382.87 405.184,404.036 415.5,425.5C 410.125,425.828 404.792,425.495 399.5,424.5C 390.667,406.833 381.833,389.167 373,371.5C 367.639,377.193 362.305,382.86 357,388.5C 356.5,400.829 356.333,413.162 356.5,425.5C 351.788,425.619 347.288,425.619 343,425.5C 342.174,391.762 342.341,358.095 343.5,324.5 Z"/></g>
<g><path style="opacity:0.911" fill="#67574b" d="M 452.5,324.5 C 465.171,324.333 477.838,324.5 490.5,325C 505.826,325.662 514.993,333.495 518,348.5C 520.332,366.351 512.832,377.517 495.5,382C 485.879,383.286 476.212,383.786 466.5,383.5C 466.667,397.504 466.5,411.504 466,425.5C 461.712,425.619 457.212,425.619 452.5,425.5C 452.5,391.833 452.5,358.167 452.5,324.5 Z M 466.5,336.5 C 476.233,336.109 485.9,336.609 495.5,338C 501.632,341.928 504.632,347.595 504.5,355C 504.55,363.946 500.216,369.279 491.5,371C 483.173,371.5 474.84,371.666 466.5,371.5C 466.5,359.833 466.5,348.167 466.5,336.5 Z"/></g>
<g><path style="opacity:0.897" fill="#67574b" d="M 526.5,324.5 C 531.167,324.5 535.833,324.5 540.5,324.5C 540.5,338.833 540.5,353.167 540.5,367.5C 555.167,367.5 569.833,367.5 584.5,367.5C 584.5,353.167 584.5,338.833 584.5,324.5C 589.099,324.2 593.599,324.533 598,325.5C 598.833,358.838 598.667,392.172 597.5,425.5C 596.914,425.709 596.414,426.043 596,426.5C 592.333,426.167 588.667,425.833 585,425.5C 584.5,410.17 584.333,394.837 584.5,379.5C 569.833,379.5 555.167,379.5 540.5,379.5C 540.667,394.837 540.5,410.17 540,425.5C 535.903,425.694 531.737,425.694 527.5,425.5C 526.5,391.84 526.167,358.173 526.5,324.5 Z"/></g>
<g><path style="opacity:0.925" fill="#67574b" d="M 616.5,324.5 C 620.833,324.5 625.167,324.5 629.5,324.5C 629.993,358.646 629.493,392.646 628,426.5C 624.333,426.167 620.667,425.833 617,425.5C 616.5,391.835 616.333,358.168 616.5,324.5 Z"/></g>
<g><path style="opacity:0.883" fill="#67574b" d="M 647.5,324.5 C 652.167,324.5 656.833,324.5 661.5,324.5C 661.5,354.167 661.5,383.833 661.5,413.5C 675.833,413.5 690.167,413.5 704.5,413.5C 704.931,418.032 704.431,422.365 703,426.5C 684.667,426.167 666.333,425.833 648,425.5C 647.5,391.835 647.333,358.168 647.5,324.5 Z"/></g>
<g><path style="opacity:0.927" fill="#67574b" d="M 712.5,324.5 C 716.833,324.5 721.167,324.5 725.5,324.5C 725.993,358.646 725.493,392.646 724,426.5C 720.333,426.167 716.667,425.833 713,425.5C 712.5,391.835 712.333,358.168 712.5,324.5 Z"/></g>
<g><path style="opacity:0.871" fill="#67574b" d="M 743.5,324.5 C 756.171,324.333 768.838,324.5 781.5,325C 796.378,325.546 805.544,333.046 809,347.5C 811.63,365.764 804.13,377.264 786.5,382C 776.879,383.286 767.212,383.786 757.5,383.5C 757.5,397.5 757.5,411.5 757.5,425.5C 752.5,425.5 747.5,425.5 742.5,425.5C 742.174,391.76 742.507,358.094 743.5,324.5 Z M 757.5,336.5 C 767.557,336.135 777.557,336.635 787.5,338C 794.529,344.847 796.695,353.014 794,362.5C 791.604,367.224 787.77,370.057 782.5,371C 774.173,371.5 765.84,371.666 757.5,371.5C 757.5,359.833 757.5,348.167 757.5,336.5 Z"/></g>
<g><path style="opacity:0.897" fill="#67574b" d="M 819.5,324.5 C 834.873,324.121 850.206,324.621 865.5,326C 882.16,333.154 888.326,345.654 884,363.5C 880.841,374.184 873.675,380.35 862.5,382C 852.879,383.286 843.212,383.786 833.5,383.5C 833.5,397.5 833.5,411.5 833.5,425.5C 828.788,425.619 824.288,425.619 820,425.5C 819.5,391.835 819.333,358.168 819.5,324.5 Z M 833.5,336.5 C 843.233,336.109 852.9,336.609 862.5,338C 866.488,339.448 868.988,342.281 870,346.5C 872.489,355.067 870.656,362.567 864.5,369C 862.5,369.667 860.5,370.333 858.5,371C 850.173,371.5 841.84,371.666 833.5,371.5C 833.5,359.833 833.5,348.167 833.5,336.5 Z"/></g>
<g><path style="opacity:0.9" fill="#67574b" d="M 895.5,324.5 C 914.5,324.5 933.5,324.5 952.5,324.5C 950.986,328.862 948.986,333.029 946.5,337C 934.171,337.5 921.838,337.667 909.5,337.5C 909.5,347.167 909.5,356.833 909.5,366.5C 921.167,366.5 932.833,366.5 944.5,366.5C 944.5,370.833 944.5,375.167 944.5,379.5C 932.833,379.5 921.167,379.5 909.5,379.5C 909.5,390.833 909.5,402.167 909.5,413.5C 921.851,413.168 934.185,413.501 946.5,414.5C 948.5,417.833 950.5,421.167 952.5,424.5C 933.512,425.5 914.512,425.833 895.5,425.5C 895.5,391.833 895.5,358.167 895.5,324.5 Z"/></g>
<g><path style="opacity:0.842" fill="#67574b" d="M 381.5,477.5 C 390.902,476.195 399.569,478.029 407.5,483C 410.103,485.094 412.103,487.594 413.5,490.5C 411.879,492.624 410.046,494.624 408,496.5C 395.918,481.9 383.918,481.9 372,496.5C 367.333,506.833 367.333,517.167 372,527.5C 377.125,536.102 384.625,539.269 394.5,537C 404.015,534.511 407.349,528.344 404.5,518.5C 397.833,518.5 391.167,518.5 384.5,518.5C 384.5,515.833 384.5,513.167 384.5,510.5C 394.5,510.5 404.5,510.5 414.5,510.5C 414.666,518.84 414.5,527.173 414,535.5C 401.083,547.596 386.916,549.429 371.5,541C 360.16,530.98 355.993,518.48 359,503.5C 362.116,490.894 369.616,482.227 381.5,477.5 Z"/></g>
<g><path style="opacity:0.829" fill="#67574b" d="M 424.5,478.5 C 437.184,478.168 449.851,478.501 462.5,479.5C 461.365,481.799 460.032,483.966 458.5,486C 450.507,486.5 442.507,486.666 434.5,486.5C 434.5,493.167 434.5,499.833 434.5,506.5C 442.167,506.5 449.833,506.5 457.5,506.5C 457.5,509.167 457.5,511.833 457.5,514.5C 449.833,514.5 442.167,514.5 434.5,514.5C 434.5,521.833 434.5,529.167 434.5,536.5C 442.507,536.334 450.507,536.5 458.5,537C 459.708,539.25 461.041,541.417 462.5,543.5C 462.291,544.086 461.957,544.586 461.5,545C 449.258,545.821 437.091,545.654 425,544.5C 424.5,522.503 424.333,500.503 424.5,478.5 Z"/></g>
<g><path style="opacity:0.873" fill="#67574b" d="M 468.5,478.5 C 472.514,478.334 476.514,478.501 480.5,479C 489.033,494.187 497.533,509.353 506,524.5C 506.5,509.17 506.667,493.837 506.5,478.5C 509.5,478.5 512.5,478.5 515.5,478.5C 515.5,500.833 515.5,523.167 515.5,545.5C 511.393,546.15 507.893,545.15 505,542.5C 496.005,526.203 487.005,509.869 478,493.5C 477.5,510.83 477.333,528.163 477.5,545.5C 474.552,545.777 471.719,545.444 469,544.5C 468.5,522.503 468.333,500.503 468.5,478.5 Z"/></g>
<g><path style="opacity:0.858" fill="#67574b" d="M 525.5,478.5 C 540.17,478.333 554.837,478.5 569.5,479C 575.744,496.147 581.911,513.314 588,530.5C 594.592,513.561 601.092,496.561 607.5,479.5C 610.5,478.167 613.5,478.167 616.5,479.5C 608.902,501.367 600.735,523.033 592,544.5C 589.263,545.61 586.429,545.777 583.5,545C 575.411,525.9 568.411,506.4 562.5,486.5C 553.5,486.5 544.5,486.5 535.5,486.5C 535.5,493.167 535.5,499.833 535.5,506.5C 543.5,506.5 551.5,506.5 559.5,506.5C 559.5,509.167 559.5,511.833 559.5,514.5C 551.5,514.5 543.5,514.5 535.5,514.5C 535.5,521.833 535.5,529.167 535.5,536.5C 543.507,536.334 551.507,536.5 559.5,537C 560.833,539.333 562.167,541.667 563.5,544C 557.331,545.149 550.998,545.649 544.5,545.5C 538.002,545.649 531.669,545.149 525.5,544C 526.165,522.334 526.165,500.501 525.5,478.5 Z"/></g>
<g><path style="opacity:0.862" fill="#67574b" d="M 621.5,478.5 C 634.184,478.168 646.851,478.501 659.5,479.5C 658.365,481.799 657.032,483.966 655.5,486C 647.173,486.5 638.84,486.666 630.5,486.5C 630.5,493.167 630.5,499.833 630.5,506.5C 638.5,506.5 646.5,506.5 654.5,506.5C 654.5,509.167 654.5,511.833 654.5,514.5C 646.5,514.5 638.5,514.5 630.5,514.5C 630.5,521.833 630.5,529.167 630.5,536.5C 638.84,536.334 647.173,536.5 655.5,537C 656.401,539.571 657.734,541.904 659.5,544C 653.331,545.149 646.998,545.649 640.5,545.5C 634.256,545.49 628.089,545.157 622,544.5C 621.5,522.503 621.333,500.503 621.5,478.5 Z"/></g>
</svg>
